<svg width="190" height="50" viewBox="0 0 190 50" fill="none" xmlns="http://www.w3.org/2000/svg">
<path d="M148.912 46.6778V44.5428L163.55 0.851562H175.197L190.001 44.1211V48.8073H184.038L179.448 34.4972L177.577 28.8754H161.425L159.555 34.4972L154.964 48.8073H151.224H148.912V46.6778ZM169.501 3.83282L161.425 28.8754H177.577L169.501 3.83282Z" fill="white"/>
<path d="M133.733 0.851562H140.959V48.8073H127.612L107.464 4.00318H107.294V48.8073H100.068V0.851562H112.565L133.563 45.6557H133.733V0.851562Z" fill="white"/>
<path d="M69.0286 50C61.3776 50 55.5401 47.757 51.5163 43.2709C47.4924 38.728 45.4805 32.6235 45.4805 24.9574C45.4805 19.9035 46.3306 15.5309 48.0308 11.8399C49.7877 8.092 52.3947 5.19591 55.8518 3.15162C59.3656 1.05054 63.7579 0 69.0286 0C76.6796 0 82.4887 2.27144 86.4559 6.81431C90.4797 11.3004 92.4917 17.3481 92.4917 24.9574C92.4917 29.8978 91.5849 34.2703 89.7713 38.075C88.0144 41.8228 85.3791 44.7473 81.8653 46.8484C78.4081 48.9495 74.1292 50 69.0286 50ZM68.9436 43.1857C74.441 43.1857 78.5782 41.4821 81.3552 38.075C84.1322 34.6678 85.5207 30.2953 85.5207 24.9574C85.5207 19.6195 84.1322 15.247 81.3552 11.8399C78.6348 8.37592 74.4976 6.64395 68.9436 6.64395C63.5028 6.64395 59.3656 8.29074 56.5319 11.5843C53.7549 14.8779 52.3664 19.3356 52.3664 24.9574C52.3664 28.4781 52.9615 31.6298 54.1516 34.4123C55.3418 37.138 57.1553 39.2959 59.5923 40.8859C62.086 42.4191 65.2031 43.1857 68.9436 43.1857Z" fill="white"/>
<path d="M0 48.8073V42.8448L30.7741 6.98444H2.46533V0.851562H39.7852V6.89926L9.35123 42.5892H39.6152V48.8073H9.35123H3.18792H0Z" fill="white"/>
</svg>
